<svg width="92" height="435" viewBox="0 0 92 435" fill="none" xmlns="http://www.w3.org/2000/svg">
<path d="M23.6328 406.164C27.3047 406.43 30.1953 407.789 32.3047 410.242C34.4141 412.68 35.4687 415.898 35.4687 419.898C35.4687 424.273 34 427.719 31.0625 430.234C28.1094 432.734 24.0625 433.984 18.9219 433.984L16.8359 433.984C13.5547 433.984 10.6641 433.406 8.16406 432.25C5.66406 431.094 3.75 429.445 2.42187 427.305C1.07812 425.148 0.406249 422.648 0.406249 419.805C0.406249 415.867 1.46094 412.695 3.57031 410.289C5.67969 407.883 8.64062 406.492 12.4531 406.117L12.4531 413.148C10.25 413.32 8.65625 413.937 7.67187 415C6.67187 416.047 6.17187 417.648 6.17187 419.805C6.17187 422.148 7.01562 423.906 8.70312 425.078C10.375 426.234 12.9766 426.828 16.5078 426.859L19.0859 426.859C22.7734 426.859 25.4687 426.305 27.1719 425.195C28.875 424.07 29.7266 422.305 29.7266 419.898C29.7266 417.727 29.2344 416.109 28.25 415.047C27.25 413.969 25.7109 413.352 23.6328 413.195L23.6328 406.164ZM18.7109 374.476C22.0703 374.476 25.0156 375.069 27.5469 376.257C30.0781 377.444 32.0312 379.147 33.4062 381.366C34.7812 383.569 35.4687 386.101 35.4687 388.96C35.4687 391.788 34.7891 394.312 33.4297 396.53C32.0703 398.749 30.1328 400.468 27.6172 401.687C25.0859 402.905 22.1797 403.522 18.8984 403.538L17.2109 403.538C13.8516 403.538 10.8984 402.937 8.35156 401.733C5.78906 400.515 3.82812 398.804 2.46875 396.601C1.09375 394.382 0.406248 391.851 0.406248 389.007C0.406248 386.163 1.09375 383.64 2.46875 381.437C3.82812 379.218 5.78906 377.507 8.35156 376.304C10.8984 375.085 13.8437 374.476 17.1875 374.476L18.7109 374.476ZM17.1641 381.601C13.5859 381.601 10.8672 382.241 9.00781 383.522C7.14844 384.804 6.21875 386.632 6.21875 389.007C6.21875 391.366 7.14062 393.187 8.98437 394.468C10.8125 395.749 13.5 396.397 17.0469 396.413L18.7109 396.413C22.1953 396.413 24.8984 395.772 26.8203 394.491C28.7422 393.21 29.7031 391.366 29.7031 388.96C29.7031 386.601 28.7812 384.788 26.9375 383.522C25.0781 382.257 22.375 381.616 18.8281 381.601L17.1641 381.601ZM23.6328 343.537C27.3047 343.803 30.1953 345.162 32.3047 347.615C34.4141 350.053 35.4687 353.272 35.4687 357.272C35.4687 361.647 34 365.092 31.0625 367.607C28.1094 370.107 24.0625 371.357 18.9219 371.357L16.8359 371.357C13.5547 371.357 10.6641 370.779 8.16406 369.623C5.66406 368.467 3.75 366.818 2.42187 364.678C1.07812 362.522 0.406247 360.022 0.406247 357.178C0.406246 353.24 1.46093 350.068 3.57031 347.662C5.67968 345.256 8.64062 343.865 12.4531 343.49L12.4531 350.522C10.25 350.693 8.65625 351.311 7.67187 352.373C6.67187 353.42 6.17187 355.022 6.17187 357.178C6.17187 359.522 7.01562 361.279 8.70312 362.451C10.375 363.607 12.9766 364.201 16.5078 364.232L19.0859 364.232C22.7734 364.232 25.4687 363.678 27.1719 362.568C28.875 361.443 29.7266 359.678 29.7266 357.272C29.7266 355.1 29.2344 353.482 28.25 352.42C27.25 351.342 25.7109 350.725 23.6328 350.568L23.6328 343.537ZM6.57031 314.896L6.57031 325.349L35 325.349L35 332.38L6.57031 332.38L6.57031 342.692L0.874996 342.692L0.874995 314.896L6.57031 314.896ZM27.9687 295.371L27.9687 307.699L35 310.043L35 317.52L0.874994 304.817L0.874994 298.301L35 285.527L35 293.004L27.9687 295.371ZM22.2734 305.801L22.2734 297.27L9.49999 301.559L22.2734 305.801ZM35 283.3L0.874993 283.3L0.874993 271.347C0.874993 267.206 1.67187 264.066 3.26562 261.925C4.84374 259.784 7.16405 258.714 10.2266 258.714C11.8984 258.714 13.375 259.144 14.6562 260.003C15.9219 260.863 16.8516 262.058 17.4453 263.589C17.8828 261.839 18.7656 260.464 20.0937 259.464C21.4219 258.448 23.0469 257.941 24.9687 257.941C28.25 257.941 30.7344 258.988 32.4219 261.081C34.1094 263.175 34.9687 266.159 35 270.034L35 283.3ZM20.1406 276.269L29.3516 276.269L29.3516 270.245C29.3516 268.589 28.9609 267.3 28.1797 266.378C27.3828 265.441 26.2891 264.972 24.8984 264.972C21.7734 264.972 20.1875 266.589 20.1406 269.823L20.1406 276.269ZM15.1719 276.269L15.1719 271.066C15.1094 267.519 13.6953 265.745 10.9297 265.745C9.38281 265.745 8.27343 266.198 7.60156 267.105C6.91406 267.995 6.57031 269.409 6.57031 271.347L6.57031 276.269L15.1719 276.269ZM17 229.814L0.874991 223.603L0.87499 216.009L29.0234 227.939L30.875 228.9C33.9531 230.665 35.4922 233.368 35.4922 237.009L35.3984 239.47L29.75 239.54C29.8125 239.165 29.8437 238.556 29.8437 237.712C29.8437 236.728 29.6719 235.939 29.3281 235.345C28.9844 234.736 28.3516 234.228 27.4297 233.822L25.2031 232.954L0.874992 244.931L0.874991 237.361L17 229.814ZM35 185.446L35 192.5L6.5703 192.5L6.5703 206.164L35 206.164L35 213.196L0.87499 213.196L0.874989 185.446L35 185.446ZM27.9687 160.952L27.9687 173.281L35 175.624L35 183.101L0.874988 170.398L0.874988 163.882L35 151.109L35 158.585L27.9687 160.952ZM22.2734 171.382L22.2734 162.851L9.49999 167.14L22.2734 171.382ZM21.0547 137.748L21.0547 141.803L35 141.803L35 148.834L0.874987 148.834L0.874987 141.803L14.539 141.803L14.539 138.592L0.874987 130.248L0.874986 121.67L17.0234 132.194L35 120.569L35 128.959L21.0547 137.748ZM18.7109 91.5287C22.0703 91.5287 25.0156 92.1225 27.5469 93.31C30.0781 94.4975 32.0312 96.2006 33.4062 98.4194C34.7812 100.622 35.4687 103.154 35.4687 106.013C35.4687 108.841 34.789 111.365 33.4297 113.583C32.0703 115.802 30.1328 117.521 27.6172 118.74C25.0859 119.958 22.1797 120.576 18.8984 120.591L17.2109 120.591C13.8515 120.591 10.8984 119.99 8.35155 118.787C5.78905 117.568 3.82811 115.857 2.46874 113.654C1.09374 111.435 0.406236 108.904 0.406236 106.06C0.406235 103.216 1.09374 100.693 2.46874 98.4897C3.82811 96.2709 5.78905 94.56 8.35155 93.3569C10.8984 92.1381 13.8437 91.5287 17.1875 91.5287L18.7109 91.5287ZM17.164 98.6537C13.5859 98.6537 10.8672 99.2944 9.0078 100.576C7.14842 101.857 6.21874 103.685 6.21874 106.06C6.21874 108.419 7.14061 110.24 8.98436 111.521C10.8125 112.802 13.5 113.451 17.0469 113.466L18.7109 113.466C22.1953 113.466 24.8984 112.826 26.8203 111.544C28.7422 110.263 29.7031 108.419 29.7031 106.013C29.7031 103.654 28.7812 101.841 26.9375 100.576C25.0781 99.31 22.375 98.6694 18.8281 98.6537L17.164 98.6537ZM35 87.3794L0.874985 87.3794L0.874984 75.4262C0.874984 71.2856 1.67186 68.145 3.26561 66.0044C4.84373 63.8637 7.16405 62.7934 10.2265 62.7934C11.8984 62.7934 13.375 63.2231 14.6562 64.0825C15.9219 64.9419 16.8515 66.1372 17.4453 67.6684C17.8828 65.9184 18.7656 64.5434 20.0937 63.5434C21.4219 62.5278 23.0469 62.02 24.9687 62.02C28.25 62.02 30.7344 63.0669 32.4219 65.1606C34.1094 67.2544 34.9687 70.2387 35 74.1137L35 87.3794ZM20.1406 80.3481L29.3515 80.3481L29.3515 74.3247C29.3515 72.6684 28.9609 71.3794 28.1797 70.4575C27.3828 69.52 26.289 69.0512 24.8984 69.0512C21.7734 69.0512 20.1875 70.6684 20.1406 73.9028L20.1406 80.3481ZM15.1719 80.3481L15.1719 75.145C15.1094 71.5981 13.6953 69.8247 10.9297 69.8247C9.3828 69.8247 8.27342 70.2778 7.60155 71.1841C6.91405 72.0747 6.5703 73.4887 6.5703 75.4262L6.5703 80.3481L15.1719 80.3481ZM21.0547 46.5503L21.0547 50.605L35 50.605L35 57.6363L0.874983 57.6363L0.874983 50.605L14.539 50.605L14.539 47.3941L0.874983 39.0503L0.874982 30.4722L17.0234 40.9956L35 29.3706L35 37.7613L21.0547 46.5503ZM0.874981 7.15094L0.874981 0.096252L35 0.0962505L35 7.15094L12.3359 7.15094L35 20.815L35 27.8463L0.874982 27.8463L0.874982 20.815L23.5859 20.815L0.874981 7.15094ZM82.0469 415.258C80.7187 415.258 79.7031 415.727 79 416.664C78.2812 417.602 77.5312 419.289 76.75 421.727C75.9531 424.164 75.1719 426.094 74.4062 427.516C72.3125 431.391 69.4922 433.328 65.9453 433.328C64.1016 433.328 62.4609 432.812 61.0234 431.781C59.5703 430.734 58.4375 429.242 57.625 427.305C56.8125 425.352 56.4062 423.164 56.4062 420.742C56.4062 418.305 56.8516 416.133 57.7422 414.227C58.6172 412.32 59.8594 410.844 61.4687 409.797C63.0781 408.734 64.9062 408.203 66.9531 408.203L66.9531 415.234C65.3906 415.234 64.1797 415.727 63.3203 416.711C62.4453 417.695 62.0078 419.078 62.0078 420.859C62.0078 422.578 62.375 423.914 63.1094 424.867C63.8281 425.82 64.7812 426.297 65.9687 426.297C67.0781 426.297 68.0078 425.742 68.7578 424.633C69.5078 423.508 70.2109 421.859 70.8672 419.687C72.0703 415.687 73.5625 412.773 75.3437 410.945C77.125 409.117 79.3437 408.203 82 408.203C84.9531 408.203 87.2734 409.32 88.9609 411.555C90.6328 413.789 91.4687 416.797 91.4687 420.578C91.4687 423.203 90.9922 425.594 90.0391 427.75C89.0703 429.906 87.75 431.555 86.0781 432.695C84.4062 433.82 82.4687 434.383 80.2656 434.383L80.2656 427.328C84.0312 427.328 85.9141 425.078 85.9141 420.578C85.9141 418.906 85.5781 417.602 84.9062 416.664C84.2187 415.727 83.2656 415.258 82.0469 415.258ZM59.4062 396.718L65.6406 396.718L65.6406 392.382L70.6094 392.382L70.6094 396.718L83.2656 396.718C84.2031 396.718 84.875 396.538 85.2812 396.179C85.6875 395.819 85.8906 395.132 85.8906 394.116C85.8906 393.366 85.8359 392.702 85.7266 392.124L90.8594 392.124C91.2656 393.452 91.4687 394.819 91.4687 396.226C91.4687 400.976 89.0703 403.397 84.2734 403.491L70.6094 403.491L70.6094 407.194L65.6406 407.194L65.6406 403.491L59.4062 403.491L59.4062 396.718ZM91.4687 377.897C91.4687 381.615 90.3281 384.647 88.0469 386.99C85.7656 389.318 82.7266 390.482 78.9297 390.482L78.2734 390.482C75.7266 390.482 73.4531 389.99 71.4531 389.006C69.4375 388.022 67.8906 386.631 66.8125 384.834C65.7187 383.022 65.1719 380.959 65.1719 378.647C65.1719 375.178 66.2656 372.451 68.4531 370.467C70.6406 368.467 73.7422 367.467 77.7578 367.467L80.5234 367.467L80.5234 383.615C82.1797 383.397 83.5078 382.74 84.5078 381.647C85.5078 380.537 86.0078 379.139 86.0078 377.451C86.0078 374.842 85.0625 372.803 83.1719 371.334L86.8984 368.006C88.3359 369.022 89.4609 370.397 90.2734 372.131C91.0703 373.865 91.4687 375.787 91.4687 377.897ZM70.6562 378.67C70.6562 380.014 71.1094 381.107 72.0156 381.951C72.9219 382.779 74.2187 383.311 75.9062 383.545L75.9062 374.123L75.3672 374.123C73.8672 374.154 72.7109 374.561 71.8984 375.342C71.0703 376.123 70.6562 377.232 70.6562 378.67ZM71.9922 350.31C71.8672 351.232 71.8047 352.044 71.8047 352.747C71.8047 355.31 72.6719 356.989 74.4062 357.786L91 357.786L91 364.56L65.6406 364.56L65.6406 358.161L68.6641 357.974C66.3359 356.614 65.1719 354.732 65.1719 352.325C65.1719 351.575 65.2734 350.872 65.4766 350.216L71.9922 350.31ZM91.4687 336.785C91.4687 340.504 90.3281 343.535 88.0469 345.879C85.7656 348.207 82.7266 349.371 78.9297 349.371L78.2734 349.371C75.7266 349.371 73.4531 348.879 71.4531 347.895C69.4375 346.91 67.8906 345.52 66.8125 343.723C65.7187 341.91 65.1719 339.848 65.1719 337.535C65.1719 334.067 66.2656 331.34 68.4531 329.356C70.6406 327.356 73.7422 326.356 77.7578 326.356L80.5234 326.356L80.5234 342.504C82.1797 342.285 83.5078 341.629 84.5078 340.535C85.5078 339.426 86.0078 338.027 86.0078 336.34C86.0078 333.731 85.0625 331.692 83.1719 330.223L86.8984 326.895C88.3359 327.91 89.4609 329.285 90.2734 331.02C91.0703 332.754 91.4687 334.676 91.4687 336.785ZM70.6562 337.559C70.6562 338.902 71.1094 339.996 72.0156 340.84C72.9219 341.668 74.2187 342.199 75.9062 342.434L75.9062 333.012L75.3672 333.012C73.8672 333.043 72.7109 333.449 71.8984 334.231C71.0703 335.012 70.6562 336.121 70.6562 337.559ZM73.2109 313.792L65.6406 309.527L65.6406 302.284L78.0625 309.503L91 301.98L91 309.245L83.0312 313.769L91 318.269L91 325.558L78.0625 318.034L65.6406 325.23L65.6406 317.964L73.2109 313.792ZM78.9766 292.51L91 292.51L91 299.541L56.875 299.541L56.875 286.229C56.875 283.666 57.3437 281.416 58.2812 279.479C59.2187 277.526 60.5547 276.026 62.2891 274.979C64.0078 273.932 65.9687 273.408 68.1719 273.408C71.5156 273.408 74.1562 274.557 76.0937 276.854C78.0156 279.135 78.9766 282.299 78.9766 286.346L78.9766 292.51ZM73.2812 292.51L73.2812 286.229C73.2812 284.369 72.8437 282.955 71.9687 281.987C71.0937 281.002 69.8437 280.51 68.2187 280.51C66.5469 280.51 65.1953 281.002 64.1641 281.987C63.1328 282.971 62.6016 284.33 62.5703 286.065L62.5703 292.51L73.2812 292.51ZM91 255.548C90.3906 255.861 89.6328 256.087 88.7266 256.228C90.5547 257.868 91.4687 260.001 91.4687 262.626C91.4687 265.111 90.75 267.173 89.3125 268.814C87.875 270.439 86.0625 271.251 83.875 271.251C81.1875 271.251 79.125 270.259 77.6875 268.275C76.25 266.275 75.5234 263.392 75.5078 259.626L75.5078 256.509L74.0547 256.509C72.8828 256.509 71.9453 256.814 71.2422 257.423C70.5391 258.017 70.1875 258.962 70.1875 260.259C70.1875 261.4 70.4609 262.298 71.0078 262.954C71.5547 263.595 72.3047 263.915 73.2578 263.915L73.2578 270.689C71.7891 270.689 70.4297 270.236 69.1797 269.329C67.9297 268.423 66.9531 267.142 66.25 265.486C65.5312 263.829 65.1719 261.97 65.1719 259.907C65.1719 256.782 65.9609 254.306 67.5391 252.478C69.1016 250.634 71.3047 249.712 74.1484 249.712L85.1406 249.712C87.5469 249.697 89.3672 249.361 90.6016 248.704L91 248.704L91 255.548ZM86.2891 261.15C86.2891 260.15 86.0703 259.228 85.6328 258.384C85.1797 257.54 84.5781 256.915 83.8281 256.509L79.4687 256.509L79.4687 259.04C79.4687 262.431 80.6406 264.236 82.9844 264.454L83.3828 264.478C84.2266 264.478 84.9219 264.181 85.4687 263.587C86.0156 262.993 86.2891 262.181 86.2891 261.15ZM80.8281 236.258L83.2656 238.696L91 238.696L91 245.469L55 245.469L55 238.696L74.9453 238.696L73.2578 237.383L65.6406 230.891L65.6406 222.758L76.2109 231.922L91 221.961L91 229.742L80.8281 236.258Z" fill="white"/>
</svg>
